<?xml version="1.0" encoding="utf-8"?>
<!-- Generator: Adobe Illustrator 21.1.0, SVG Export Plug-In . SVG Version: 6.00 Build 0)  -->
<svg version="1.1" id="Layer_1" xmlns="http://www.w3.org/2000/svg" xmlns:xlink="http://www.w3.org/1999/xlink" x="0px" y="0px"
	 viewBox="0 0 746 594" style="enable-background:new 0 0 746 594;" xml:space="preserve">
<style type="text/css">
	.st0{fill:#E87311;}
	.st1{fill-rule:evenodd;clip-rule:evenodd;}
	.st2{fill-rule:evenodd;clip-rule:evenodd;fill:#E87311;}
</style>
<rect x="18" y="250.3" class="st0" width="88" height="120"/>
<rect x="639.3" y="250.3" class="st0" width="87.3" height="120"/>
<path class="st0" d="M372.3,22C219.2,22,95,146.1,95,299.3c0,153.2,124.2,277.3,277.3,277.3s277.3-124.2,277.3-277.3
	C649.7,146.1,525.5,22,372.3,22z M373.2,536.6c-130.6,0-236.4-105.8-236.4-236.4c0-130.6,105.8-236.4,236.4-236.4
	c130.6,0,236.4,105.8,236.4,236.4C609.7,430.8,503.8,536.6,373.2,536.6z"/>
<g>
	<path class="st1" d="M516.3,211l8-14.6l-67.9-55l-4.2,15.7c-10.8,13.6-22.4,29.5-33.2,43.1c4.4,12.8,7.6,22.9,2.5,34.2
		c-44.8,60.2-89.6,120.3-134.4,180.5c-13.4,18,14.3,38.6,26.7,25.5L445.6,265c9.4-12.5,16.5-12.7,28.9-13.2
		c14.8-0.5,11.8,0.3,20.3-11.4L516.3,211z"/>
	<path class="st1" d="M479.5,253.4l-21,8.1c-47.7,63.6-94.6,125.4-142.3,189c-15.1,10.9-40.7-5.3-49.9-21.4
		c-7.8-13.6-0.8-17.8,7.2-28.5c44.6-59.5,88.4-117.1,133.2-176.9c5.2-9,0.3-20.1-2.1-30.5c11.4-14.7,24.6-31.5,36-46.2
		c4.8-2.3,9.5-4.7,14.3-7c-1.7,5.1-2.8,11.1-4.4,16.1c-10.8,13.6-22.6,29.8-33.4,43.4c4.4,12.8,6.9,22.4,1.9,33.7
		c-44.8,60.2-88.3,120.3-134,179.7c-15.7,20.4,16.9,43.7,31.1,29.1l131.6-175.4c9.4-12.5,16.5-12.7,28.9-13.2L479.5,253.4z"/>
	<path class="st1" d="M429.7,131.6l-128.9,31.6l-50.9,34.2l-35.4,30.4c0.8,3.6,2.2,6.9,4.1,9.8c1.9,2.9,4.4,5.5,7.6,7.7l40-23.5
		l62.2-43.1l0.3-0.2L429.7,131.6z"/>
	<path class="st1" d="M248.5,199.1l-40.6,27c-1.6,1.3-1,4.5,0.7,8.7c3.5,8.3,6.3,13.7,15,19.1c2.5,1.5,2.9,2.5,6.9-0.1l66-42.3
		l35.6-24l99.7-47.7l4.8-8.5l-107.1,50l-62.3,43.1l-41.1,24.1c-7.9-5-12.1-12.1-13.9-20.7L248.5,199.1z"/>
	<path class="st1" d="M290.3,212.8c26,39.6,52,79.1,78,118.7c21.9,29.1,49.9,74.8,69.3,108.2c2.9,5,3.4,7.6,12.9,3.7
		c9.9-4.1,17.3-7.8,26.9-18.6c2.3-2.6,2.2-4.1-0.1-7c-24-30.5-59.8-74-79-106.3c-26.7-39.1-53.3-78.3-80-117.4
		C307.4,199.3,299.4,205.2,290.3,212.8"/>
	<path class="st1" d="M562.3,359.5H182.9c25.9,80.1,101,138,189.7,138C461.3,497.5,536.4,439.6,562.3,359.5 M177,260h391.2
		c-17.8-91.8-98.6-161-195.6-161S194.8,168.2,177,260z M372.6,33.2c133.4,0,243.7,98.5,262.3,226.8H716v99.6h-85.5
		c-27.7,116.8-132.6,203.7-257.9,203.7c-125.3,0-230.2-86.9-257.9-203.7H29.2V260h81.1C128.9,131.7,239.2,33.2,372.6,33.2z"/>
	<path class="st0" d="M585,381.8l-5.2,13.3l4.9,1.9l4.8-12.1c0.7-1.8,1.5-2.9,2.4-3.3c0.9-0.4,2.2-0.3,3.9,0.4l2.3,0.9
		c1.8,0.7,2.8,1.5,3.2,2.3c0.4,0.9,0.2,2.2-0.5,4l-4.5,11.5c-0.7,1.8-1.5,2.9-2.4,3.3c-0.9,0.4-2.2,0.3-3.9-0.4l-0.5-0.2l0.6-3.5
		l2.8,1.1l5.6-14.3l-5.3-2.1l-4.8,12.2c-0.7,1.8-1.5,2.9-2.4,3.3c-0.9,0.4-2.2,0.3-3.9-0.4l-1.8-0.7c-1.7-0.7-2.8-1.5-3.2-2.4
		c-0.4-0.9-0.2-2.2,0.5-4l4.2-10.5c0.7-1.8,1.5-2.9,2.4-3.3c0.9-0.4,2.1-0.3,3.6,0.3l0.5,0.2l-0.6,3.5L585,381.8z M582,427.3
		l-17.6-10.1l1.9-3.3l15,8.6l7.9-13.7l2.7,1.5L582,427.3z M550.4,446c-1.5-1.1-2.4-2.1-2.5-3.1c-0.1-1,0.3-2.2,1.5-3.8l8.5-12
		c1.1-1.6,2.1-2.4,3.1-2.6c1-0.2,2.2,0.3,3.7,1.4l8.7,6.2c1.5,1.1,2.4,2.1,2.5,3.1c0.1,1-0.3,2.2-1.5,3.8l-8.5,12
		c-1.1,1.6-2.2,2.5-3.1,2.6c-0.9,0.2-2.2-0.3-3.7-1.4L550.4,446z M562.8,450.1l9.9-13.9L561,428l-9.9,13.9L562.8,450.1z
		 M529.2,468.6c-1.4-1.3-2-2.4-2-3.4c0-1,0.7-2.2,2-3.6l10.1-10.6c1.3-1.4,2.5-2.1,3.5-2.1c1,0,2.1,0.6,3.5,1.9l7.8,7.4
		c1.3,1.3,2,2.4,2,3.4c0,1-0.7,2.2-2,3.6l-10.1,10.6c-1.3,1.4-2.5,2.1-3.5,2.2c-1,0-2.1-0.6-3.5-1.9L529.2,468.6z M540.8,474.4
		l11.7-12.3l-10.3-9.8l-11.7,12.3L540.8,474.4z M518.4,475.4l10.7,13.6l-3,2.4l-10.7-13.6l-7.5,5.9l-1.9-2.4l18.2-14.3l1.9,2.4
		L518.4,475.4z M502.2,487.9l-13.5,8.7l7.7,12l13.5-8.7l-3-4.7l-7,4.5l-1.5-2.3l10.2-6.6l3.6,5.5c1,1.6,1.4,2.8,1.2,3.8
		c-0.2,0.9-1.2,1.9-2.8,3l-11.6,7.4c-1.6,1-2.9,1.5-3.9,1.3c-0.9-0.2-1.9-1.1-2.9-2.6l-5.8-9c-1-1.6-1.4-2.8-1.2-3.8
		c0.2-1,1.1-1.9,2.8-3l11.6-7.4c1.6-1,2.9-1.4,3.8-1.3c1,0.2,1.9,1,2.8,2.4l0.3,0.5l-2.9,2.6L502.2,487.9z M461.9,511.5
		c0.3,0.5,0.6,1,0.9,1.6c0.3,0.5,0.6,1.1,0.8,1.6l5.2,11.5l-3.2,1.5l-8.4-18.6l2.7-1.2l19.1,6c0.6,0.2,1.1,0.4,1.6,0.6
		c0.6,0.2,1.1,0.6,1.7,0.9c-0.4-0.5-0.7-1-1-1.6c-0.3-0.5-0.6-1.1-0.9-1.7l-5.1-11.2l3.2-1.5l8.4,18.5l-2.4,1.1l-19.4-6
		c-0.7-0.2-1.3-0.5-1.8-0.7C462.9,512.1,462.4,511.8,461.9,511.5z M457,531.1l-3.6,1.2l-6.5-19.2l3.6-1.2L457,531.1z M434.5,538.2
		l-16.8-16.4l4-1.1l13.2,13.3l3.9-18.1l3.6-1l-5.1,22.6L434.5,538.2z M402.1,537l10.6-1.9l-7-8.6L402.1,537z M395.5,546l8-22.1
		l3.5-0.6l15.4,17.9l-4.1,0.7l-3.4-4.2l-13.8,2.5l-1.7,5.1L395.5,546z M368.7,546.7l-0.6-24.8l20-0.5c1.9,0,3.2,0.3,4,1
		c0.8,0.7,1.3,2,1.3,3.6l0.1,5.5c0,1.7-0.3,2.9-1.1,3.7c-0.8,0.8-2.1,1.2-4,1.2l-15.8,0.4l0.2,9.6L368.7,546.7z M386.5,524.7
		l-14.2,0.4l0.2,8.6l14.2-0.4c1,0,1.7-0.2,2.1-0.6c0.4-0.4,0.6-1.1,0.5-2l-0.1-3.4c0-1-0.2-1.6-0.6-2
		C388.2,524.8,387.5,524.6,386.5,524.7z M321.4,541.8l3.6-20l20.2,3.6l-0.5,3l-16.4-2.9l-0.9,5.2l9.9,1.8l-0.5,3l-9.9-1.8l-1.1,6
		l16.6,3l-0.5,2.9L321.4,541.8z M305.9,516.9c1.9,0.5,3.4,1.1,4.6,1.7c1.2,0.6,2.1,1.3,2.8,2c1.1,1.2,1.8,2.7,2.2,4.3
		c0.3,1.7,0.3,3.4-0.2,5.1c-0.9,3.3-2.6,5.5-5.1,6.5c-2.5,1.1-5.7,1-9.8-0.1l-11.3-3.2l5.6-19.6L305.9,516.9z M304.7,519.7l-7.2-2
		l-3.9,13.7l7.2,2c3.2,0.9,5.6,1,7.3,0.3c1.7-0.7,2.8-2.3,3.5-4.7c0.7-2.4,0.5-4.3-0.6-5.8C309.9,521.8,307.8,520.6,304.7,519.7z
		 M267.4,515.8l9.8,4.5l-0.9-11.1L267.4,515.8z M256.9,519.4l19.1-13.7l3.2,1.4l2.6,23.5L278,529l-0.5-5.4l-12.8-5.8l-4.3,3.3
		L256.9,519.4z M240.9,490.3c-0.2,0.2-0.4,0.6-0.6,1c-0.4,0.7-0.7,1.2-0.8,1.4l-7.4,11.6l-2.7-1.7l11-17.1l2.7,1.7l1.4,16.6l15-6.1
		l3,1.9l-11,17.1l-3-1.9l7.4-11.6c0.3-0.4,0.5-0.8,0.8-1.2c0.3-0.4,0.6-0.7,0.9-1.1c-0.5,0.4-1,0.8-1.5,1.1
		c-0.5,0.3-0.8,0.5-1.2,0.6l-12.3,4.6l-0.8-0.5l-1.2-13.2c0-0.5,0-1,0-1.5C240.6,491.5,240.7,491,240.9,490.3z M225.5,474
		c1.5,1.3,2.6,2.4,3.4,3.5c0.8,1.1,1.4,2.1,1.7,3c0.5,1.6,0.5,3.2,0.1,4.8c-0.4,1.7-1.2,3.2-2.4,4.5c-2.2,2.6-4.7,3.8-7.4,3.8
		c-2.7-0.1-5.6-1.5-8.8-4.3l-8.9-7.7l13.3-15.4L225.5,474z M223.2,476l-5.6-4.9l-9.3,10.8l5.6,4.9c2.5,2.2,4.6,3.3,6.4,3.4
		c1.8,0.1,3.5-0.9,5.2-2.8c1.6-1.9,2.3-3.7,1.9-5.5C227,480.1,225.6,478.1,223.2,476z M194,448.5c-0.4,0.5-0.8,0.9-1.2,1.3
		c-0.4,0.4-0.9,0.9-1.3,1.2l-9.6,8.3l-2.3-2.7l15.4-13.3l1.9,2.2l-0.3,20c0,0.6,0,1.2-0.1,1.8c-0.1,0.6-0.2,1.2-0.4,1.9
		c0.4-0.5,0.8-1,1.2-1.4c0.4-0.5,0.9-0.9,1.4-1.3l9.3-8l2.3,2.7l-15.4,13.3l-1.7-2l0.2-20.4c0-0.7,0.1-1.4,0.2-2
		C193.7,449.5,193.8,449,194,448.5z M170.6,431.9l6.3,8.8l4.8-10L170.6,431.9z M159.7,429.7l23.4-2.2l2,2.9l-9.6,21.6l-2.4-3.4
		l2.3-4.9l-8.1-11.5l-5.4,0.6L159.7,429.7z M143.2,398.1l22.1-11.3l1.9,3.7l-9,4.6l8.9,17.4l9-4.6l1.9,3.7l-22.1,11.3l-1.9-3.7
		l10-5.1l-8.9-17.4l-10,5.1L143.2,398.1z"/>
	<path class="st0" d="M527.4,136.9l7.4-7.8l0.3-18.9l4.1,3.9l-0.3,14.5l14.2-1.3l3.9,3.8l-18.9,1.2l-7.4,7.8L527.4,136.9z
		 M519,102.2l-12.2,17.1l-3.8-2.7l12.2-17.1l-9.5-6.7l2.1-3l22.8,16.2l-2.1,3L519,102.2z M487.6,106.5l-4-2.3l12.3-21.4l4,2.3
		L487.6,106.5z M455.7,90.5L465.9,68l4.2,1.9L461.5,89l17.5,7.9l-1.5,3.4L455.7,90.5z M429,72.2l12.6,3.6l-3.1-13.1L429,72.2z
		 M417,78.5l20.5-19.9l4.1,1.2l7.3,27.7l-4.9-1.4l-1.5-6.4l-16.4-4.7l-4.6,4.7L417,78.5z M390.1,50.3l-2.6,20.8l17.9,2.3l2.6-20.8
		l4.7,0.6l-2.4,18.7c-0.3,2.3-0.9,3.7-1.8,4.4c-0.9,0.7-2.6,0.9-4.9,0.6l-15.2-1.9c-2.3-0.3-3.9-0.9-4.6-1.8c-0.7-0.9-1-2.5-0.7-4.7
		l2.4-18.7L390.1,50.3z M332.7,54.1c-0.2-2.7,0.1-4.6,1-5.7c0.9-1.1,2.7-1.7,5.5-1.9l20.7-1.6c2.7-0.2,4.6,0.1,5.6,1.1
		c1.1,0.9,1.7,2.7,1.9,5.5l1.2,15.8c0.2,2.8-0.1,4.7-1,5.7c-0.9,1.1-2.7,1.7-5.4,1.9l-3.4,0.3l4.1,7l-4.8,0.4l-3.7-7.1l-12.9,1
		c-2.7,0.2-4.6-0.2-5.7-1.1c-1.1-0.9-1.7-2.8-1.9-5.5L332.7,54.1z M356.5,71.1l7.4-0.6l-1.7-21.7l-24.8,1.9l1.7,21.7l13-1l-3.6-6.7
		l3.3-1.6L356.5,71.1z M273.7,96.9l-9-22.9l4.3-1.7l3.6,9.2l18.3-7.2l-3.6-9.2l4.3-1.7l9,22.9l-4.3,1.7l-4-10.2L274,85l4,10.2
		L273.7,96.9z M249.3,86.7l-16.4,10.5l9.3,14.6l16.4-10.5l-3.6-5.6l-8.5,5.4l-1.8-2.8l12.4-8l4.3,6.7c1.2,1.9,1.7,3.4,1.4,4.6
		c-0.3,1.1-1.4,2.3-3.4,3.6l-14.1,9c-2,1.3-3.5,1.8-4.7,1.6c-1.1-0.2-2.3-1.3-3.6-3.2l-7-10.9c-1.2-1.9-1.7-3.4-1.4-4.6
		c0.3-1.2,1.4-2.4,3.3-3.6l14.1-9c1.9-1.2,3.5-1.7,4.7-1.5c1.2,0.2,2.3,1.2,3.4,2.9l0.4,0.6l-3.5,3.2L249.3,86.7z M232.1,124.3
		l-3.7,2.9l-15.2-19.4l3.7-2.9L232.1,124.3z M195.7,161l-22.7-19.7l3.3-3.8l9.3,8l15.5-17.9l-9.3-8l3.3-3.8l22.7,19.7l-3.3,3.8
		l-10.3-8.9l-15.5,17.9l10.3,8.9L195.7,161z"/>
	<polygon class="st2" points="165.1,168.8 167.6,176.8 176,176.7 169.2,181.6 171.8,189.6 165.1,184.6 158.3,189.6 160.9,181.6 
		154.1,176.7 162.5,176.8 	"/>
	<polygon class="st2" points="148.7,206.5 151.3,214.5 159.6,214.4 152.9,219.3 155.5,227.3 148.7,222.3 142,227.3 144.6,219.3 
		137.8,214.4 146.2,214.5 	"/>
	<polygon class="st2" points="576.3,168.8 573.7,176.8 565.4,176.7 572.1,181.6 569.5,189.6 576.3,184.6 583,189.6 580.4,181.6 
		587.2,176.7 578.8,176.8 	"/>
	<polygon class="st2" points="597.1,206.5 594.5,214.5 586.2,214.4 593,219.3 590.4,227.3 597.1,222.3 603.8,227.3 601.2,219.3 
		608,214.4 599.7,214.5 	"/>
	<path class="st1" d="M641.7,252.9C620.2,123.8,507.9,25.3,372.6,25.3c-135.3,0-247.6,98.5-269.1,227.6H22.1v113.7h86.2
		c30.4,117.6,137.1,204.5,264.2,204.5c127.1,0,233.9-86.9,264.2-204.5h87.1V252.9H641.7z M372.6,18c136.7,0,250.5,97.8,275.2,227.3
		h77.9h5.4v5.4v118.3v5.4h-5.4h-83.4C609.3,492.1,501,578.5,372.6,578.5c-128.4,0-236.7-86.4-269.8-204.2H19.4h-5.4v-5.4V250.6v-5.4
		h5.4h77.9C122.2,115.8,236,18,372.6,18z"/>
	<path class="st0" d="M686,291.8h-31.4v12.4h27.9c4,0,6.7,0.7,8.1,2.2c1.5,1.5,2.2,4.2,2.2,8.3v5c0,4.1-0.7,6.9-2.1,8.3
		c-1.4,1.5-4.2,2.2-8.2,2.2h-25.9c-4,0-6.7-0.7-8.2-2.2c-1.4-1.5-2.2-4.2-2.2-8.3v-1.2l6.9-1.6v7.1h33v-13.3h-27.8
		c-4,0-6.7-0.7-8.2-2.2c-1.4-1.5-2.1-4.2-2.1-8.3v-3.9c0-4.1,0.7-6.8,2.1-8.3c1.4-1.5,4.2-2.2,8.2-2.2H682c4,0,6.7,0.7,8.2,2.2
		c1.5,1.4,2.2,4,2.2,7.6v0.9l-6.4,1.8V291.8z M592.1,330.1v-44.3h7.4V324h33.6v6.2H592.1z M518.2,296.3c0-4,0.7-6.8,2.2-8.2
		c1.4-1.5,4.2-2.2,8.2-2.2h30.7c4,0,6.7,0.7,8.2,2.2c1.4,1.5,2.2,4.2,2.2,8.3v23.4c0,4.1-0.7,6.9-2.2,8.3c-1.4,1.5-4.2,2.2-8.2,2.2
		h-30.7c-4.1,0-6.8-0.7-8.2-2.2c-1.4-1.5-2.2-4.2-2.2-8.3V296.3z M525.6,324h36.7v-32.1h-36.7V324z M444.9,296.3
		c0-4,0.7-6.8,2.2-8.2c1.4-1.5,4.2-2.2,8.3-2.2H486c4,0,6.7,0.7,8.2,2.2c1.4,1.5,2.2,4.2,2.2,8.3v23.4c0,4.1-0.7,6.9-2.2,8.3
		c-1.4,1.5-4.2,2.2-8.2,2.2h-30.7c-4.1,0-6.8-0.7-8.3-2.2c-1.4-1.5-2.2-4.2-2.2-8.3V296.3z M452.3,324H489v-32.1h-36.7V324z
		 M412.7,291.8v38.3h-7.4v-38.3H385v-6h48v6H412.7z M366.8,291.8h-34.7V324h34.7v-13h-18v-5.7h25.4v14.3c0,4.1-0.7,6.8-2.2,8.3
		c-1.5,1.5-4.2,2.2-8.2,2.2h-28.7c-4.1,0-6.8-0.7-8.2-2.2c-1.4-1.5-2.2-4.3-2.2-8.3v-23.4c0-4,0.7-6.8,2.2-8.3
		c1.4-1.5,4.2-2.2,8.2-2.2h28.7c4,0,6.7,0.7,8.2,2.2c1.5,1.4,2.2,4,2.2,7.8v1.1l-7.4,1.5V291.8z M253.3,330.1v-44.3h4.7l33.2,29.7
		c0.8,0.7,1.6,1.5,2.4,2.4c0.8,0.9,1.7,2,2.6,3.1c-0.2-1.4-0.4-2.9-0.5-4.5c-0.1-1.5-0.2-3.7-0.2-6.4v-24.3h6.8v44.3h-4.2L264,299.3
		c-0.2-0.1-0.4-0.4-0.7-0.7c-1.7-1.5-2.9-3-3.7-4.3c0.2,1.3,0.3,2.8,0.4,4.3c0.1,1.5,0.1,3.3,0.1,5.4v26.1H253.3z M222.8,330.1
		v-44.3h7.4v44.3H222.8z M179.1,330.1l-24.2-44.3h8l19.6,37l18.7-37h7.3l-23.2,44.3H179.1z M99.4,330.1l24.2-44.3h7.9l24.7,44.3
		h-8.2l-5.7-10.9h-30l-5.7,10.9H99.4z M115.5,313.6h23.9l-12-22.7L115.5,313.6z M52.3,330.1v-44.3h35.8c3.3,0,5.7,0.7,7.2,2
		c1.5,1.4,2.2,3.6,2.2,6.6v9.9c0,3-0.7,5.2-2.2,6.5c-1.5,1.4-3.9,2-7.2,2H59.7v17.3H52.3z M85.2,291.6H59.7V307h25.5
		c1.8,0,3.1-0.3,3.8-1c0.7-0.7,1-1.9,1-3.6v-6.2c0-1.7-0.3-2.9-1-3.6C88.2,291.9,87,291.6,85.2,291.6z"/>
</g>
</svg>
