<?xml version="1.0" encoding="utf-8"?>
<!-- Generator: Adobe Illustrator 21.1.0, SVG Export Plug-In . SVG Version: 6.00 Build 0)  -->
<svg version="1.1" id="Layer_1" xmlns="http://www.w3.org/2000/svg" xmlns:xlink="http://www.w3.org/1999/xlink" x="0px" y="0px"
	 viewBox="0 0 566.9 301.1" style="enable-background:new 0 0 566.9 301.1;" xml:space="preserve">
<style type="text/css">
	.st0{fill:url(#SVGID_1_);}
	.st1{fill:url(#SVGID_2_);}
	.st2{fill:url(#SVGID_3_);}
	.st3{fill:url(#SVGID_4_);}
	.st4{filter:url(#Adobe_OpacityMaskFilter);}
	.st5{fill:url(#SVGID_6_);}
	.st6{opacity:0.5;mask:url(#SVGID_5_);fill:#FFFFFF;}
	.st7{fill:url(#SVGID_7_);}
	.st8{filter:url(#Adobe_OpacityMaskFilter_1_);}
	.st9{fill:url(#SVGID_9_);}
	.st10{opacity:0.5;mask:url(#SVGID_8_);fill:#FFFFFF;}
	.st11{fill:url(#SVGID_10_);}
	.st12{filter:url(#Adobe_OpacityMaskFilter_2_);}
	.st13{fill:url(#SVGID_12_);}
	.st14{opacity:0.5;mask:url(#SVGID_11_);fill:#FFFFFF;}
	.st15{fill:url(#SVGID_13_);}
	.st16{filter:url(#Adobe_OpacityMaskFilter_3_);}
	.st17{fill:url(#SVGID_15_);}
	.st18{mask:url(#SVGID_14_);fill:#FFFFFF;}
	.st19{fill:url(#SVGID_16_);}
</style>
<path d="M445.2,260.1c-0.8,0-1.4,0.6-1.4,1.5c0,0.9,0.6,1.5,1.4,1.5h0c0.8,0,1.4-0.6,1.4-1.5C446.6,260.7,446,260.1,445.2,260.1z
	 M451.8,256.8c0.6,0,1.1,0.1,1.3,0.2l0.4-1.8c-0.5-0.2-1.2-0.3-1.8-0.3c-2.9,0-4.4,1.9-4.4,4.2c0,2.5,1.6,4,4.1,4
	c0.9,0,1.7-0.2,2.1-0.4l-0.3-1.8c-0.4,0.2-0.8,0.3-1.4,0.3c-1.2,0-2.1-0.8-2.1-2.2C449.7,257.7,450.5,256.8,451.8,256.8z
	 M457.9,254.9c-2.5,0-4.1,1.6-4.1,4.2c0,2.5,1.7,4.1,4,4.1c2.1,0,4.1-1.3,4.1-4.2C461.8,256.5,460.3,254.9,457.9,254.9z
	 M457.8,261.4c-1,0-1.6-1-1.6-2.4c0-1.2,0.4-2.4,1.6-2.4c1.1,0,1.5,1.2,1.5,2.4C459.4,260.4,458.8,261.4,457.8,261.4z M472,254.9
	c-0.6,0-1,0.1-1.5,0.4c-0.4,0.2-0.7,0.5-1,1h0c-0.3-0.8-1.1-1.3-2.1-1.3c-1.3,0-2,0.7-2.3,1.2h0l-0.1-1.1h-2c0,0.7,0.1,1.5,0.1,2.5
	v5.4h2.3v-4.6c0-0.2,0-0.4,0.1-0.6c0.1-0.4,0.5-0.9,1.1-0.9c0.8,0,1.1,0.7,1.1,1.7v4.4h2.3v-4.6c0-0.2,0-0.5,0.1-0.6
	c0.2-0.5,0.6-0.9,1.1-0.9c0.8,0,1.1,0.7,1.1,1.8v4.3h2.3v-4.6C474.6,255.9,473.5,254.9,472,254.9z"/>
<linearGradient id="SVGID_1_" gradientUnits="userSpaceOnUse" x1="160.0675" y1="211.4839" x2="160.0675" y2="236.0397">
	<stop  offset="0" style="stop-color:#333333"/>
	<stop  offset="0.8401" style="stop-color:#090909"/>
	<stop  offset="1" style="stop-color:#000000"/>
</linearGradient>
<path class="st0" d="M126,231.6c-0.3-0.9-0.8-1.8-1.3-2.7c-0.5-0.8-1.1-1.5-1.9-2.1c-1.3-1-2.7-1.7-4.2-2c-1.5-0.3-2.9-0.5-4.3-0.5
	H107c-1,0-2,0-2.8-0.1c-0.9-0.1-1.5-0.4-2-0.8c-0.5-0.5-0.8-1.2-0.9-1.9c-0.1-0.7-0.1-1.4-0.1-2c0-0.4,0-0.8,0.1-1.2
	c0-0.4,0.2-0.8,0.4-1.2c0.2-0.5,0.6-0.9,1.1-1.5c0.5-0.5,1.1-0.8,1.7-0.8h19.1c0.4,0,0.7-0.2,0.7-0.6v-6.8c0-0.4-0.2-0.6-0.7-0.6
	h-21.9c-1.1,0-2.1,0.3-3.2,0.8c-1.1,0.5-2,1.1-2.8,1.7c-2.6,2-4,4.8-4.3,8.3c-0.1,0.4-0.1,0.7-0.1,1.1v1.2c0,0.9,0.1,1.9,0.2,2.9
	c0.2,1,0.4,1.9,0.7,2.8c0.3,0.9,0.8,1.8,1.3,2.6c0.5,0.8,1.1,1.5,1.9,2.1c1.3,0.9,2.7,1.6,4.3,1.9c1.6,0.3,3,0.5,4.4,0.5h7.5
	c1.1,0,2.1,0.1,2.9,0.3c0.8,0.2,1.4,0.5,1.9,1c0.5,0.6,0.8,1.2,0.9,1.9c0.1,0.7,0.1,1.4,0.1,2.1c0,0.5,0,0.9-0.1,1.3
	c0,0.4-0.2,0.8-0.4,1.3c-0.2,0.5-0.6,1-1.1,1.6c-0.5,0.6-1.1,0.9-1.7,0.9H92.6c-0.4,0-0.7,0.2-0.7,0.6v6.8c0,0.4,0.2,0.6,0.7,0.6
	h24.1c1,0,2-0.3,3.1-0.8c1.1-0.6,2-1.1,2.7-1.7c2.5-2,3.9-4.9,4.2-8.7c0.1-0.3,0.1-0.7,0.1-1.1v-1.3c0-0.9-0.1-1.9-0.2-3
	C126.6,233.5,126.3,232.5,126,231.6z M148.9,234c-0.1-0.1-0.2-0.2-0.3-0.4c-0.1-0.2-0.2-0.3-0.2-0.4c0-0.1,0.1-0.2,0.2-0.3
	c0.1-0.1,0.2-0.2,0.3-0.3l12.4-13.2c0.2-0.2,0.3-0.3,0.2-0.4c0-0.1-0.1-0.2-0.4-0.2h-8.6c-0.5,0-0.9,0.2-1.1,0.5l-10.7,11.4
	c-0.4,0.4-0.6,0.9-0.9,1.3c-0.2,0.5-0.3,0.9-0.3,1.2c0,0.5,0.1,0.9,0.3,1.4c0.2,0.5,0.5,0.9,0.8,1.3l11.5,14.6
	c0.3,0.4,0.7,0.6,1.1,0.6h8.5c0.4,0,0.4-0.1,0.2-0.4L148.9,234z M137.5,206.7h-6.8c-0.4,0-0.7,0.2-0.7,0.6v43.1
	c0,0.4,0.2,0.6,0.7,0.6h6.8c0.4,0,0.7-0.2,0.7-0.6v-43.1C138.2,206.9,138,206.7,137.5,206.7z M171.2,218.8h-6.8
	c-0.4,0-0.7,0.2-0.7,0.6v31c0,0.4,0.2,0.6,0.7,0.6h6.8c0.4,0,0.7-0.2,0.7-0.6v-31C171.9,219,171.6,218.8,171.2,218.8z M171.2,206.7
	h-6.8c-0.4,0-0.7,0.2-0.7,0.6v6.3c0,0.4,0.2,0.6,0.7,0.6h6.8c0.4,0,0.7-0.2,0.7-0.6v-6.3C171.9,206.9,171.6,206.7,171.2,206.7z
	 M183.2,206.7h-6.8c-0.4,0-0.7,0.2-0.7,0.6v43.1c0,0.4,0.2,0.6,0.7,0.6h6.8c0.4,0,0.7-0.2,0.7-0.6v-43.1
	C183.8,206.9,183.6,206.7,183.2,206.7z M195.2,206.7h-6.8c-0.4,0-0.7,0.2-0.7,0.6v43.1c0,0.4,0.2,0.6,0.7,0.6h6.8
	c0.4,0,0.7-0.2,0.7-0.6v-43.1C195.8,206.9,195.6,206.7,195.2,206.7z M228.5,236.7c-0.4-1.4-0.9-2.5-1.7-3.4c-0.8-0.8-1.8-1.4-3-1.8
	c-1.2-0.4-2.7-0.5-4.4-0.5h-9.7c-0.7,0-1.2-0.3-1.5-0.8c-0.3-0.5-0.5-1.1-0.5-1.6c0-0.6,0.2-1.1,0.5-1.6c0.3-0.5,0.8-0.7,1.5-0.7
	H227c0.4,0,0.7-0.2,0.7-0.6v-6.3c0-0.4-0.2-0.6-0.7-0.6h-14.3c-2.3,0-4.2,0.1-5.8,0.4c-1.6,0.2-2.9,0.7-4,1.4c-1,0.7-1.8,1.7-2.3,3
	c-0.5,1.3-0.8,2.9-0.8,5c0,1.4,0.2,2.7,0.5,3.9c0.3,1.2,0.8,2.2,1.5,3c0.7,0.8,1.5,1.5,2.7,2c1.1,0.5,2.4,0.7,4,0.7h10.4
	c0.9,0,1.5,0.3,1.8,0.8c0.3,0.5,0.4,1.1,0.4,1.6c0,0.3,0,0.6-0.1,1c0,0.3-0.2,0.7-0.4,1c-0.2,0.3-0.5,0.5-0.8,0.7
	c-0.4,0.2-0.8,0.3-1.5,0.3h-18.2c-0.4,0-0.7,0.2-0.7,0.6v6.3c0,0.4,0.2,0.6,0.7,0.6h21.7c1.5,0,2.7-0.4,3.7-1.1
	c0.9-0.7,1.7-1.5,2.2-2.5c0.5-1,0.9-2,1.1-3c0.2-1,0.3-1.8,0.3-2.4C229.1,239.9,228.9,238.1,228.5,236.7z"/>
<linearGradient id="SVGID_2_" gradientUnits="userSpaceOnUse" x1="353.3639" y1="212.8283" x2="353.3639" y2="244.3017">
	<stop  offset="0" style="stop-color:#333333"/>
	<stop  offset="0.8401" style="stop-color:#090909"/>
	<stop  offset="1" style="stop-color:#000000"/>
</linearGradient>
<path class="st1" d="M264.9,214.1v-6.8c0-0.4-0.2-0.6-0.7-0.6h-32.5c-0.4,0-0.7,0.2-0.7,0.6v6.8c0,0.4,0.2,0.6,0.7,0.6h10.8
	c0.4,0,0.7,0.2,0.7,0.6v35c0,0.4,0.2,0.6,0.7,0.6h8.3c0.4,0,0.7-0.2,0.7-0.6v-35c0-0.4,0.2-0.6,0.7-0.6h10.8
	C264.7,214.7,264.9,214.5,264.9,214.1z M281.1,218.8h-9c-1.2,0-2.3,0.2-3.4,0.6c-1.1,0.4-2,1-2.8,1.8c-0.8,0.7-1.4,1.6-1.9,2.6
	c-0.5,1-0.7,2-0.7,3.1v23.5c0,0.4,0.2,0.6,0.7,0.6h7.4c0.4,0,0.7-0.2,0.7-0.6v-21.3c0-0.2,0.1-0.5,0.2-0.8c0.1-0.3,0.3-0.6,0.6-0.9
	c0.2-0.3,0.5-0.5,0.8-0.7c0.3-0.2,0.7-0.3,1.1-0.3h6.4c0.4,0,0.7-0.2,0.7-0.6v-6.3C281.7,219,281.5,218.8,281.1,218.8z M311.4,222.5
	c-0.7-1.1-1.7-1.9-2.8-2.6c-1.2-0.7-2.6-1-4.3-1h-18.7c-0.4,0-0.7,0.2-0.7,0.6v6.3c0,0.4,0.2,0.6,0.7,0.6H303c0.7,0,1.3,0.3,1.7,0.9
	c0.4,0.6,0.7,1.2,0.7,1.7c0,0.7-0.3,1.3-1,1.8c-0.7,0.5-1.6,0.8-2.7,0.8h-11.1c-1.3,0-2.5,0.4-3.4,1c-0.9,0.7-1.7,1.6-2.3,2.6
	c-0.6,1-1,2.1-1.3,3.3c-0.3,1.2-0.4,2.3-0.4,3.3c0,0.5,0.1,1.3,0.3,2.3c0.2,1,0.5,2.1,1,3.1c0.5,1,1.1,1.9,2,2.7
	c0.8,0.8,1.9,1.1,3.2,1.1h23.1c0.4,0,0.7-0.2,0.7-0.6V230c0-1.3-0.2-2.6-0.5-4C312.6,224.7,312.1,223.5,311.4,222.5z M305.4,243.2
	c0,0.4-0.2,0.6-0.7,0.6h-11.4c-0.8,0-1.4-0.3-1.9-0.8c-0.4-0.5-0.7-1.2-0.7-1.9c0-0.6,0.2-1.1,0.6-1.6c0.4-0.5,0.9-0.7,1.5-0.7h11.8
	c0.4,0,0.7,0.2,0.7,0.6V243.2z M324.5,218.8h-6.8c-0.4,0-0.7,0.2-0.7,0.6v31c0,0.4,0.2,0.6,0.7,0.6h6.8c0.4,0,0.7-0.2,0.7-0.6v-31
	C325.2,219,325,218.8,324.5,218.8z M324.5,206.7h-6.8c-0.4,0-0.7,0.2-0.7,0.6v6.3c0,0.4,0.2,0.6,0.7,0.6h6.8c0.4,0,0.7-0.2,0.7-0.6
	v-6.3C325.2,206.9,325,206.7,324.5,206.7z M356.9,222.1c-1-1-2.2-1.8-3.6-2.4c-1.4-0.6-2.8-0.9-4.4-0.9h-15c-1.4,0-2.6,0.4-3.5,1.3
	c-0.9,0.8-1.4,1.8-1.4,2.8v25.7c0,0.7,0.1,1.2,0.4,1.7c0.3,0.5,0.7,0.7,1.4,0.7h4.4c1.2,0,1.9-0.7,1.9-2v-21.8
	c0-0.4,0.2-0.7,0.6-1.1c0.4-0.3,0.9-0.5,1.4-0.5h6.4c0.9,0,1.8,0.1,2.6,0.2c0.8,0.1,1.5,0.4,2.1,0.8c0.6,0.4,1.1,0.9,1.4,1.5
	c0.3,0.7,0.5,1.5,0.5,2.5v19.7c0,0.4,0.2,0.6,0.7,0.6h6.7c0.5,0,0.7-0.2,0.7-0.6v-21c0-1.4-0.3-2.7-0.9-4
	C358.8,224.2,358,223.1,356.9,222.1z M371.3,206.7h-6.8c-0.4,0-0.7,0.2-0.7,0.6v6.3c0,0.4,0.2,0.6,0.7,0.6h6.8
	c0.4,0,0.7-0.2,0.7-0.6v-6.3C371.9,206.9,371.7,206.7,371.3,206.7z M371.3,218.8h-6.8c-0.4,0-0.7,0.2-0.7,0.6v31
	c0,0.4,0.2,0.6,0.7,0.6h6.8c0.4,0,0.7-0.2,0.7-0.6v-31C371.9,219,371.7,218.8,371.3,218.8z M403.7,222.1c-1-1-2.2-1.8-3.6-2.4
	c-1.4-0.6-2.8-0.9-4.4-0.9h-15c-1.4,0-2.6,0.4-3.5,1.3c-0.9,0.8-1.4,1.8-1.4,2.8v25.7c0,0.7,0.1,1.2,0.4,1.7
	c0.3,0.5,0.7,0.7,1.4,0.7h4.4c1.2,0,1.9-0.7,1.9-2v-21.8c0-0.4,0.2-0.7,0.6-1.1c0.4-0.3,0.9-0.5,1.4-0.5h6.4c0.9,0,1.8,0.1,2.6,0.2
	c0.8,0.1,1.5,0.4,2.1,0.8c0.6,0.4,1.1,0.9,1.4,1.5c0.3,0.7,0.5,1.5,0.5,2.5v19.7c0,0.4,0.2,0.6,0.7,0.6h6.7c0.5,0,0.7-0.2,0.7-0.6
	v-21c0-1.4-0.3-2.7-0.9-4C405.5,224.2,404.7,223.1,403.7,222.1z M441.6,219.5c-0.7-0.5-1.5-0.7-2.6-0.7h-15.3
	c-2.4,0-4.4,0.4-6.2,1.1c-1.7,0.7-3.2,1.7-4.3,2.9c-1.1,1.2-1.9,2.6-2.4,4.2c-0.5,1.6-0.8,3.2-0.8,4.9v4c0,2.4,0.4,4.6,1.3,6.5
	c0.9,1.9,2,3.5,3.3,4.8c1.4,1.3,2.9,2.3,4.6,2.9c1.7,0.7,3.4,1,5.1,1h9.9v1.5c0,0.4,0,0.8,0,1.3c0,0.5-0.1,0.9-0.3,1.3
	c-0.2,0.4-0.4,0.7-0.7,1c-0.3,0.3-0.8,0.4-1.3,0.4H414c-0.4,0-0.7,0.2-0.7,0.6v5.7c0,0.4,0.2,0.6,0.7,0.6h19.9
	c1.2,0,2.3-0.3,3.4-0.8c1.1-0.6,2-1.3,2.8-2.1c0.8-0.8,1.4-1.8,1.9-2.8c0.5-1,0.7-1.9,0.7-2.8v-33.1
	C442.6,220.8,442.3,220,441.6,219.5z M434.2,242.9c0,0.4-0.2,0.6-0.7,0.6h-4.2c-2,0-3.7-0.2-5.1-0.5c-1.3-0.3-2.4-0.8-3.2-1.5
	c-0.8-0.7-1.4-1.6-1.7-2.6c-0.3-1-0.5-2.3-0.5-3.7v-1.6c0-2.2,0.5-4,1.4-5.3c0.9-1.3,2.5-1.9,4.6-1.9h8.7c0.4,0,0.7,0.2,0.7,0.6
	V242.9z M475.1,236.7c-0.4-1.4-0.9-2.5-1.7-3.4c-0.8-0.8-1.8-1.4-3-1.8c-1.2-0.4-2.7-0.5-4.4-0.5h-9.7c-0.7,0-1.2-0.3-1.5-0.8
	c-0.3-0.5-0.5-1.1-0.5-1.6c0-0.6,0.2-1.1,0.5-1.6c0.3-0.5,0.8-0.7,1.5-0.7h17.4c0.4,0,0.7-0.2,0.7-0.6v-6.3c0-0.4-0.2-0.6-0.7-0.6
	h-14.3c-2.3,0-4.2,0.1-5.8,0.4c-1.6,0.2-2.9,0.7-4,1.4c-1,0.7-1.8,1.7-2.3,3c-0.5,1.3-0.8,2.9-0.8,5c0,1.4,0.2,2.7,0.5,3.9
	c0.3,1.2,0.8,2.2,1.5,3c0.7,0.8,1.5,1.5,2.6,2c1.1,0.5,2.5,0.7,4,0.7h10.4c0.9,0,1.5,0.3,1.8,0.8c0.3,0.5,0.4,1.1,0.4,1.6
	c0,0.3,0,0.6-0.1,1c0,0.3-0.2,0.7-0.4,1c-0.2,0.3-0.5,0.5-0.8,0.7c-0.4,0.2-0.8,0.3-1.5,0.3h-18.2c-0.4,0-0.7,0.2-0.7,0.6v6.3
	c0,0.4,0.2,0.6,0.7,0.6h21.7c1.5,0,2.7-0.4,3.7-1.1c0.9-0.7,1.7-1.5,2.2-2.5c0.5-1,0.9-2,1.1-3c0.2-1,0.3-1.8,0.3-2.4
	C475.7,239.9,475.5,238.1,475.1,236.7z"/>
<path d="M152.4,258H140v1.8h5.1v14.9h2.2v-14.9h5.1V258z M154.5,265.1L154.5,265.1l-0.2-2.4h-1.9c0.1,1.1,0.1,2.3,0.1,3.8l0,8.3h2.2
	v-6.4c0-0.4,0-0.7,0.1-1c0.3-1.6,1.4-2.8,2.9-2.8c0.3,0,0.5,0,0.8,0.1v-2c-0.2,0-0.4-0.1-0.6-0.1
	C156.4,262.5,155.1,263.5,154.5,265.1z M168.3,267.4c0-2.4-0.9-4.9-4.6-4.9c-1.5,0-3,0.4-4,1l0.5,1.5c0.8-0.6,2-0.9,3.2-0.9
	c2.5,0,2.7,1.8,2.7,2.8v0.2c-4.7,0-7.2,1.6-7.2,4.5c0,1.7,1.2,3.5,3.7,3.5c1.7,0,3-0.8,3.7-1.8h0.1l0.2,1.5h2
	c-0.1-0.8-0.2-1.8-0.2-2.9V267.4z M166.2,270.7c0,0.2,0,0.5-0.1,0.7c-0.3,1-1.4,2-3,2c-1.1,0-2-0.6-2-2.1c0-2.3,2.7-2.8,5.1-2.7
	V270.7z M171.2,274.8h2.2v-12h-2.2V274.8z M172.3,257.7c-0.8,0-1.4,0.6-1.4,1.4c0,0.8,0.5,1.4,1.4,1.4h0c0.9,0,1.4-0.6,1.4-1.4
	C173.7,258.3,173.2,257.7,172.3,257.7z M182.4,262.5c-2,0-3.4,1.1-4,2.2h0l-0.1-2h-1.9c0.1,1,0.1,2,0.1,3.3v8.8h2.2v-7.3
	c0-0.4,0.1-0.7,0.1-1c0.4-1.2,1.5-2.2,2.9-2.2c2.1,0,2.8,1.6,2.8,3.6v6.9h2.2v-7.2C186.7,263.5,184.1,262.5,182.4,262.5z
	 M189.6,274.8h2.2v-12h-2.2V274.8z M190.7,257.7c-0.8,0-1.4,0.6-1.4,1.4c0,0.8,0.5,1.4,1.4,1.4h0c0.9,0,1.4-0.6,1.4-1.4
	C192.1,258.3,191.6,257.7,190.7,257.7z M200.8,262.5c-2,0-3.4,1.1-4,2.2h0l-0.1-2h-1.9c0.1,1,0.1,2,0.1,3.3v8.8h2.2v-7.3
	c0-0.4,0.1-0.7,0.1-1c0.4-1.2,1.5-2.2,2.9-2.2c2.1,0,2.8,1.6,2.8,3.6v6.9h2.2v-7.2C205.1,263.5,202.5,262.5,200.8,262.5z
	 M216.4,264.5L216.4,264.5c-0.6-1-1.7-2.1-3.8-2.1c-2.8,0-5.5,2.3-5.5,6.4c0,3.4,2.1,5.9,5.1,5.9c1.9,0,3.2-0.9,3.8-2h0.1v1.3
	c0,3.1-1.6,4.2-3.9,4.2c-1.5,0-2.7-0.4-3.5-1l-0.5,1.7c1,0.6,2.6,1,4,1c1.5,0,3.2-0.4,4.4-1.4c1.1-1.1,1.7-2.7,1.7-5.5v-7
	c0-1.5,0-2.4,0.1-3.3h-1.9L216.4,264.5z M216.1,269.6c0,0.4-0.1,0.8-0.2,1.2c-0.4,1.4-1.7,2.3-3,2.3c-2.3,0-3.6-2-3.6-4.3
	c0-2.8,1.5-4.6,3.6-4.6c1.6,0,2.7,1,3.1,2.3c0.1,0.3,0.1,0.6,0.1,1V269.6z M225.2,267.8c-1.6-0.6-2.3-1-2.3-2.1c0-0.9,0.7-1.6,2-1.6
	c1.1,0,2,0.4,2.5,0.7l0.5-1.6c-0.6-0.4-1.7-0.7-2.9-0.7c-2.6,0-4.2,1.6-4.2,3.5c0,1.4,1,2.6,3.2,3.4c1.6,0.6,2.2,1.2,2.2,2.2
	c0,1-0.7,1.8-2.3,1.8c-1.1,0-2.2-0.4-2.9-0.8l-0.5,1.6c0.8,0.5,2.1,0.8,3.4,0.8c2.8,0,4.5-1.5,4.5-3.6
	C228.3,269.6,227.2,268.6,225.2,267.8z M237.5,262.1c0-1.8,0.5-3.5,2.3-3.5c0.6,0,1.1,0.1,1.4,0.3l0.3-1.7c-0.4-0.2-1.1-0.3-1.9-0.3
	c-1,0-2.1,0.3-2.9,1.1c-1,1-1.4,2.5-1.4,4.2v0.6h-1.7v1.7h1.7v10.4h2.2v-10.4h2.9v-1.7h-2.9V262.1z M246.6,262.5c-3.3,0-6,2.4-6,6.4
	c0,3.8,2.5,6.2,5.8,6.2h0c2.9,0,6-1.9,6-6.4C252.4,265,250.1,262.5,246.6,262.5z M246.5,273.4L246.5,273.4c-2.1,0-3.6-2-3.6-4.6
	c0-2.3,1.1-4.7,3.7-4.7c2.6,0,3.6,2.6,3.6,4.6C250.2,271.5,248.6,273.4,246.5,273.4z M256.6,265.1L256.6,265.1l-0.2-2.4h-1.9
	c0.1,1.1,0.1,2.3,0.1,3.8l0,8.3h2.2v-6.4c0-0.4,0-0.7,0.1-1c0.3-1.6,1.4-2.8,2.9-2.8c0.3,0,0.5,0,0.8,0.1v-2c-0.2,0-0.4-0.1-0.6-0.1
	C258.5,262.5,257.1,263.5,256.6,265.1z M271.8,269.8c-0.3,0.9-0.5,1.8-0.8,2.5h0c-0.2-0.7-0.5-1.7-0.8-2.5l-2.6-7.1h-2.4l4.4,11.1
	c0.1,0.2,0.2,0.4,0.2,0.5c0,0.1-0.1,0.3-0.2,0.5c-0.5,1.1-1.2,2-1.8,2.4c-0.6,0.6-1.4,0.9-1.9,1.1l0.5,1.8c0.5-0.1,1.6-0.5,2.7-1.4
	c1.5-1.3,2.6-3.4,4.1-7.6l3.3-8.6h-2.3L271.8,269.8z M282.7,262.5c-3.3,0-6,2.4-6,6.4c0,3.8,2.5,6.2,5.8,6.2h0c2.9,0,6-1.9,6-6.4
	C288.5,265,286.1,262.5,282.7,262.5z M282.6,273.4L282.6,273.4c-2.1,0-3.6-2-3.6-4.6c0-2.3,1.1-4.7,3.7-4.7c2.6,0,3.6,2.6,3.6,4.6
	C286.2,271.5,284.6,273.4,282.6,273.4z M300.7,262.7h-2.2v7.4c0,0.4-0.1,0.8-0.2,1.1c-0.4,1-1.4,2-2.9,2c-2,0-2.7-1.6-2.7-3.9v-6.6
	h-2.2v7c0,4.2,2.3,5.3,4.2,5.3c2.1,0,3.4-1.3,4-2.2h0.1l0.1,2h1.9c-0.1-0.9-0.1-2-0.1-3.3V262.7z M309.1,262.5c-1.5,0-2.8,1-3.4,2.6
	h-0.1l-0.1-2.4h-1.9c0.1,1.1,0.1,2.3,0.1,3.8l0,8.3h2.2v-6.4c0-0.4,0-0.7,0.1-1c0.3-1.6,1.4-2.8,2.9-2.8c0.3,0,0.5,0,0.8,0.1v-2
	C309.5,262.5,309.3,262.5,309.1,262.5z"/>
<linearGradient id="SVGID_3_" gradientUnits="userSpaceOnUse" x1="360.5715" y1="257.7452" x2="360.5715" y2="275.0673">
	<stop  offset="0" style="stop-color:#E6304E"/>
	<stop  offset="1" style="stop-color:#D90D3A"/>
</linearGradient>
<path class="st2" d="M321.6,265c-2.2-0.9-3.2-1.5-3.2-2.8c0-1,0.8-2,2.8-2c1.6,0,2.7,0.5,3.3,0.8l0.7-2.5c-0.9-0.4-2.2-0.8-4-0.8
	c-3.6,0-5.9,2.1-5.9,4.8c0,2.4,1.8,3.9,4.5,4.9c2.1,0.8,3,1.5,3,2.8c0,1.4-1.1,2.3-3.1,2.3c-1.6,0-3.1-0.5-4.1-1.1l-0.7,2.5
	c0.9,0.5,2.8,1.1,4.5,1.1c4.3,0,6.4-2.4,6.4-5.1C326,267.6,324.6,266.1,321.6,265z M338.1,267.8c0,3.3-1.3,4.8-3.5,4.8
	c-2.1,0-3.4-1.5-3.4-4.8V258h-3.1v9.6c0,5.3,2.5,7.4,6.4,7.4c4,0,6.7-2.3,6.7-7.5V258h-3.1V267.8z M352.3,260.3
	c1.4,0,2.5,0.3,3.3,0.6l0.7-2.4c-0.6-0.3-2.1-0.7-4.1-0.7c-5.1,0-9,3.3-9,8.9c0,5.1,3.2,8.5,8.6,8.5c2,0,3.6-0.4,4.3-0.8l-0.5-2.4
	c-0.8,0.4-2.1,0.6-3.3,0.6c-3.7,0-5.8-2.4-5.8-6C346.4,262.4,348.9,260.3,352.3,260.3z M365.6,260.3c1.4,0,2.5,0.3,3.3,0.6l0.7-2.4
	c-0.6-0.3-2.1-0.7-4.1-0.7c-5.1,0-9,3.3-9,8.9c0,5.1,3.2,8.5,8.6,8.5c2,0,3.6-0.4,4.3-0.8l-0.5-2.4c-0.8,0.4-2.1,0.6-3.3,0.6
	c-3.7,0-5.8-2.4-5.8-6C359.8,262.4,362.2,260.3,365.6,260.3z M374.5,267.4h6.3v-2.5h-6.3v-4.3h6.7V258h-9.8v16.8h10.1v-2.5h-7.1
	V267.4z M389.4,265c-2.2-0.9-3.2-1.5-3.2-2.8c0-1,0.8-2,2.8-2c1.6,0,2.7,0.5,3.3,0.8l0.7-2.5c-0.9-0.4-2.2-0.8-4-0.8
	c-3.6,0-5.9,2.1-5.9,4.8c0,2.4,1.8,3.9,4.5,4.9c2.1,0.8,3,1.5,3,2.8c0,1.4-1.1,2.3-3.1,2.3c-1.6,0-3.1-0.5-4.1-1.1l-0.7,2.5
	c0.9,0.5,2.8,1.1,4.5,1.1c4.3,0,6.4-2.4,6.4-5.1C393.8,267.6,392.4,266.1,389.4,265z M401.7,265c-2.2-0.9-3.2-1.5-3.2-2.8
	c0-1,0.8-2,2.8-2c1.6,0,2.7,0.5,3.3,0.8l0.7-2.5c-0.9-0.4-2.2-0.8-4-0.8c-3.6,0-5.9,2.1-5.9,4.8c0,2.4,1.8,3.9,4.5,4.9
	c2.1,0.8,3,1.5,3,2.8c0,1.4-1.1,2.3-3.1,2.3c-1.6,0-3.1-0.5-4.1-1.1l-0.7,2.5c0.9,0.5,2.8,1.1,4.5,1.1c4.3,0,6.4-2.4,6.4-5.1
	C406.1,267.6,404.7,266.1,401.7,265z"/>
<radialGradient id="SVGID_4_" cx="256.4427" cy="135.4752" r="54.0536" gradientTransform="matrix(1 0 -0.2679 1 130.6466 0)" gradientUnits="userSpaceOnUse">
	<stop  offset="0" style="stop-color:#C8D419"/>
	<stop  offset="1" style="stop-color:#77B238"/>
</radialGradient>
<path class="st3" d="M399.5,62.8h-33.1c3,13.4,2.5,24.2-1.3,38.2c-10.7,40.1-65.8,72.6-123.1,72.6c-9.8,0-18.9-1-27.4-2.7
	c12,3,25.3,4.7,39.7,4.7c44.2,0,87.4-15,114.1-38.7C398.3,110.4,400.9,76.2,399.5,62.8z"/>
<defs>
	<filter id="Adobe_OpacityMaskFilter" filterUnits="userSpaceOnUse" x="265.8" y="64.6" width="120" height="108.8">
		<feColorMatrix  type="matrix" values="1 0 0 0 0  0 1 0 0 0  0 0 1 0 0  0 0 0 1 0"/>
	</filter>
</defs>
<mask maskUnits="userSpaceOnUse" x="265.8" y="64.6" width="120" height="108.8" id="SVGID_5_">
	<g class="st4">
		
			<linearGradient id="SVGID_6_" gradientUnits="userSpaceOnUse" x1="284.6266" y1="133.0458" x2="240.8129" y2="123.7235" gradientTransform="matrix(1 0 -0.2679 1 130.6466 0)">
			<stop  offset="0" style="stop-color:#FFFFFF"/>
			<stop  offset="1" style="stop-color:#000000"/>
		</linearGradient>
		<path class="st5" d="M385.8,75.4c0.5-4.6-17.1-10.9-17.1-10.9c2.4,12.3,1.9,22.7-1.8,36.4c-9.4,35.2-52.3,64.8-101.1,72.4
			c3.4-0.2,6.9-0.5,10.3-0.9c30.8-5.6,59.5-18.4,79.1-36.3C378,115.5,384.3,90.7,385.8,75.4z"/>
	</g>
</mask>
<path class="st6" d="M385.8,75.4c0.5-4.6-17.1-10.9-17.1-10.9c2.4,12.3,1.9,22.7-1.8,36.4c-9.4,35.2-52.3,64.8-101.1,72.4
	c3.4-0.2,6.9-0.5,10.3-0.9c30.8-5.6,59.5-18.4,79.1-36.3C378,115.5,384.3,90.7,385.8,75.4z"/>
<radialGradient id="SVGID_7_" cx="182.5567" cy="132.2029" r="53.2174" gradientTransform="matrix(1 0 -0.2679 1 130.6466 0)" gradientUnits="userSpaceOnUse">
	<stop  offset="0" style="stop-color:#FFEBA9"/>
	<stop  offset="0.5" style="stop-color:#FECC00"/>
	<stop  offset="1" style="stop-color:#F8AE00"/>
</radialGradient>
<path class="st7" d="M351.6,93.8h-31.3c1.1,5.5,0.9,11.3-0.7,17.4c-8.4,31.2-51.3,56.5-95.9,56.5c-6.9,0-13.5-0.6-19.7-1.8
	c10,3,21.3,4.7,33.7,4.7c52.2,0,102.5-29.6,112.3-66.2C350.9,100.8,351.4,97.3,351.6,93.8z"/>
<defs>
	<filter id="Adobe_OpacityMaskFilter_1_" filterUnits="userSpaceOnUse" x="235.6" y="95.5" width="101.2" height="73.3">
		<feColorMatrix  type="matrix" values="1 0 0 0 0  0 1 0 0 0  0 0 1 0 0  0 0 0 1 0"/>
	</filter>
</defs>
<mask maskUnits="userSpaceOnUse" x="235.6" y="95.5" width="101.2" height="73.3" id="SVGID_8_">
	<g class="st8">
		
			<linearGradient id="SVGID_9_" gradientUnits="userSpaceOnUse" x1="224.7043" y1="152.2355" x2="194.9625" y2="137.3647" gradientTransform="matrix(1 0 -0.2679 1 130.6466 0)">
			<stop  offset="0" style="stop-color:#FFFFFF"/>
			<stop  offset="1" style="stop-color:#000000"/>
		</linearGradient>
		<path class="st9" d="M235.6,168.8c0.9,0,1.7,0,2.6,0c1.3,0,2.7,0,4-0.1c45.2-5.2,85.9-32,94.6-64.2c0.8-3-14.2-9-14.2-9
			c0.6,5.1,0.2,10.4-1.2,15.7C313.5,140.4,276.4,164.7,235.6,168.8z"/>
	</g>
</mask>
<path class="st10" d="M235.6,168.8c0.9,0,1.7,0,2.6,0c1.3,0,2.7,0,4-0.1c45.2-5.2,85.9-32,94.6-64.2c0.8-3-14.2-9-14.2-9
	c0.6,5.1,0.2,10.4-1.2,15.7C313.5,140.4,276.4,164.7,235.6,168.8z"/>
<radialGradient id="SVGID_10_" cx="158.6868" cy="142.3604" r="35.9978" gradientTransform="matrix(1 0 -0.2679 1 130.6466 0)" gradientUnits="userSpaceOnUse">
	<stop  offset="0" style="stop-color:#EF7E7C"/>
	<stop  offset="0.5" style="stop-color:#E6304E"/>
	<stop  offset="1" style="stop-color:#D90D3A"/>
</radialGradient>
<path class="st11" d="M276.9,120.9c0,0.1,0,0.2-0.1,0.3c-6.1,22.7-33.4,41.1-65.9,41.1c-3.9,0-7.6-0.3-11.1-0.8
	c6.3,1.5,13.3,2.3,20.7,2.3c36.1,0,70.9-18.6,82.5-42.9H276.9z"/>
<defs>
	<filter id="Adobe_OpacityMaskFilter_2_" filterUnits="userSpaceOnUse" x="231" y="122.7" width="55.2" height="38.9">
		<feColorMatrix  type="matrix" values="1 0 0 0 0  0 1 0 0 0  0 0 1 0 0  0 0 0 1 0"/>
	</filter>
</defs>
<mask maskUnits="userSpaceOnUse" x="231" y="122.7" width="55.2" height="38.9" id="SVGID_11_">
	<g class="st12">
		
			<linearGradient id="SVGID_12_" gradientUnits="userSpaceOnUse" x1="191.7854" y1="147.5352" x2="170.9039" y2="143.7376" gradientTransform="matrix(1 0 -0.2679 1 130.6466 0)">
			<stop  offset="0" style="stop-color:#FFFFFF"/>
			<stop  offset="1" style="stop-color:#000000"/>
		</linearGradient>
		<path class="st13" d="M231,161.6c1.3-0.1,2.6-0.3,3.8-0.4c21-5,40-16.3,51.1-30.7c1.9-2.5-7.7-7.7-7.7-7.7
			C272.5,141.1,253.8,155.9,231,161.6z"/>
	</g>
</mask>
<path class="st14" d="M231,161.6c1.3-0.1,2.6-0.3,3.8-0.4c21-5,40-16.3,51.1-30.7c1.9-2.5-7.7-7.7-7.7-7.7
	C272.5,141.1,253.8,155.9,231,161.6z"/>
<linearGradient id="SVGID_13_" gradientUnits="userSpaceOnUse" x1="177.8859" y1="96.5166" x2="125.5873" y2="27.7656" gradientTransform="matrix(1 0 -0.2679 1 130.6466 0)">
	<stop  offset="0" style="stop-color:#333333"/>
	<stop  offset="1" style="stop-color:#000000"/>
</linearGradient>
<path class="st15" d="M195.4,90.8c11.2-41.7,65.3-75.5,120.9-75.5c29.9,0,54.2,9.8,68.4,25.4c-15.8-19.2-44.4-31.5-80-31.5
	c-63.1,0-124.6,38.4-137.3,85.8c-6.5,24.1,4.6,67.5,48.4,53.6C197.6,134.7,189.2,114,195.4,90.8z"/>
<defs>
	<filter id="Adobe_OpacityMaskFilter_3_" filterUnits="userSpaceOnUse" x="180.1" y="12.2" width="145.7" height="137.3">
		<feColorMatrix  type="matrix" values="1 0 0 0 0  0 1 0 0 0  0 0 1 0 0  0 0 0 1 0"/>
	</filter>
</defs>
<mask maskUnits="userSpaceOnUse" x="180.1" y="12.2" width="145.7" height="137.3" id="SVGID_14_">
	<g class="st16">
		
			<linearGradient id="SVGID_15_" gradientUnits="userSpaceOnUse" x1="64.8931" y1="-7.0233" x2="127.7838" y2="56.4711" gradientTransform="matrix(1 0 -0.2679 1 130.6466 0)">
			<stop  offset="0" style="stop-color:#FFFFFF"/>
			<stop  offset="1" style="stop-color:#000000"/>
		</linearGradient>
		<path class="st17" d="M182.3,91.8c-5.9,22,0.2,42.7,16.5,57.7c0.6,0,1.1,0.1,1.7,0.1c3.6,0,7.4-0.5,11.4-1.5
			c-17.5-14.7-24.1-35.3-18.2-57.2c11.4-42.6,66.6-77.3,123.1-77.3c3.1,0,6.1,0.1,9,0.3c-6.3-1-13-1.6-19.8-1.6
			C249.5,12.2,194,47.9,182.3,91.8z"/>
	</g>
</mask>
<path class="st18" d="M182.3,91.8c-5.9,22,0.2,42.7,16.5,57.7c0.6,0,1.1,0.1,1.7,0.1c3.6,0,7.4-0.5,11.4-1.5
	c-17.5-14.7-24.1-35.3-18.2-57.2c11.4-42.6,66.6-77.3,123.1-77.3c3.1,0,6.1,0.1,9,0.3c-6.3-1-13-1.6-19.8-1.6
	C249.5,12.2,194,47.9,182.3,91.8z"/>
<linearGradient id="SVGID_16_" gradientUnits="userSpaceOnUse" x1="176.9686" y1="37.9031" x2="150.5642" y2="117.7922" gradientTransform="matrix(1 0 -0.2679 1 130.6466 0)">
	<stop  offset="0" style="stop-color:#333333"/>
	<stop  offset="1" style="stop-color:#000000"/>
</linearGradient>
<path class="st19" d="M343.6,50.9C303.6,62.7,273.1,27.5,228,64c33.2-13.1,46.6-1.2,37.3,25.6c-30.2,86.7-79.3,63-79.3,63
	c18,12.6,44.6,9.3,71.4-18.5c7.6-7.9,13.9-17.3,19.2-26.6c7.4-3.9,12.7-7.7,17.6-8.8c12.7-2.9,2.5,20,2.5,20
	c18.7-20.9,25.5-41,7.5-38c-5.3,0.9-9.7,1.1-14.8,2c2.8-5.7,5.4-10.5,7.7-13.8C307,54.9,325,69.7,343.6,50.9z M290.3,47
	c5.5,1.8,13.2-2.5,17.1-9.5c3.9-7,2.6-14.1-2.9-15.9c-5.5-1.8-13.2,2.5-17.1,9.5C283.5,38.1,284.8,45.2,290.3,47z"/>
</svg>
