<?xml version="1.0" encoding="utf-8"?>
<!-- Generator: Adobe Illustrator 21.1.0, SVG Export Plug-In . SVG Version: 6.00 Build 0)  -->
<svg version="1.1" id="Layer_1" xmlns="http://www.w3.org/2000/svg" xmlns:xlink="http://www.w3.org/1999/xlink" x="0px" y="0px"
	 viewBox="0 0 1000 800" style="enable-background:new 0 0 1000 800;" xml:space="preserve">
<style type="text/css">
	.st0{fill:url(#SVGID_1_);}
	.st1{clip-path:url(#SVGID_3_);}
	.st2{fill:url(#SVGID_4_);}
	.st3{fill:#3C3C3B;}
	.st4{fill:#E94E1B;}
	.st5{fill:url(#SVGID_5_);}
	.st6{opacity:0.6;}
	.st7{fill:#FFFFFF;}
	.st8{fill:none;}
</style>
<g>
	
		<radialGradient id="SVGID_1_" cx="886.7835" cy="6003.6675" r="175.1531" gradientTransform="matrix(1.0783 0 0 9.840000e-02 -444.2404 -41.6937)" gradientUnits="userSpaceOnUse">
		<stop  offset="0" style="stop-color:#1A1A1A"/>
		<stop  offset="3.138900e-02" style="stop-color:#2B2B2B"/>
		<stop  offset="0.1284" style="stop-color:#5C5C5C"/>
		<stop  offset="0.2305" style="stop-color:#888888"/>
		<stop  offset="0.336" style="stop-color:#ADADAD"/>
		<stop  offset="0.4457" style="stop-color:#CBCBCB"/>
		<stop  offset="0.561" style="stop-color:#E2E2E2"/>
		<stop  offset="0.6844" style="stop-color:#F2F2F2"/>
		<stop  offset="0.8215" style="stop-color:#FCFCFC"/>
		<stop  offset="1" style="stop-color:#FFFFFF"/>
	</radialGradient>
	<path class="st0" d="M611.9,551.3c0,4.8-44.7,8.7-99.9,8.7c-55.2,0-99.9-3.9-99.9-8.7c0-4.8,44.7-8.7,99.9-8.7
		C567.2,542.6,611.9,546.5,611.9,551.3z"/>
	<g>
		<g>
			<defs>
				<polygon id="SVGID_2_" points="512,532 342.6,434.6 342.6,239.8 512,142.3 681.4,239.8 681.4,434.6 				"/>
			</defs>
			<clipPath id="SVGID_3_">
				<use xlink:href="#SVGID_2_"  style="overflow:visible;"/>
			</clipPath>
			<g class="st1">
				<g>
					
						<linearGradient id="SVGID_4_" gradientUnits="userSpaceOnUse" x1="164.1809" y1="122.8291" x2="164.1809" y2="551.5723" gradientTransform="matrix(1 0 0 1 170.6885 0)">
						<stop  offset="0" style="stop-color:#FFFFFF"/>
						<stop  offset="0.2686" style="stop-color:#E3E3E3"/>
						<stop  offset="0.8456" style="stop-color:#9C9C9C"/>
						<stop  offset="1" style="stop-color:#888888"/>
					</linearGradient>
					<rect x="280.3" y="122.8" class="st2" width="109.1" height="428.7"/>
					<rect x="398.8" y="122.8" class="st3" width="109.1" height="428.7"/>
				</g>
				<g>
					<rect x="515.3" y="122.8" class="st4" width="109.1" height="428.7"/>
					
						<linearGradient id="SVGID_5_" gradientUnits="userSpaceOnUse" x1="517.7236" y1="122.8291" x2="517.7236" y2="551.5723" gradientTransform="matrix(1 0 0 1 170.6885 0)">
						<stop  offset="0" style="stop-color:#FFFFFF"/>
						<stop  offset="0.2686" style="stop-color:#E3E3E3"/>
						<stop  offset="0.8456" style="stop-color:#9C9C9C"/>
						<stop  offset="1" style="stop-color:#888888"/>
					</linearGradient>
					<rect x="633.8" y="122.8" class="st5" width="109.1" height="428.7"/>
				</g>
			</g>
		</g>
		<g class="st6">
			<polygon class="st7" points="412.5,474.8 404.9,470.4 404.9,203.9 412.5,199.6 			"/>
			<polygon class="st7" points="426.5,482.9 417.7,477.8 417.7,196.6 426.5,191.5 			"/>
			<polygon class="st7" points="440.3,490.8 431.7,485.9 431.7,188.5 440.3,183.6 			"/>
			<polygon class="st7" points="453.8,498.6 445.5,493.8 445.5,180.6 453.8,175.8 			"/>
			<polygon class="st7" points="467.5,506.5 459,501.6 459,172.8 467.5,167.9 			"/>
			<polygon class="st7" points="481.1,514.3 472.8,509.5 472.8,164.9 481.1,160.1 			"/>
			<polygon class="st7" points="494.9,522.2 486.3,517.3 486.3,157.1 494.9,152.2 			"/>
		</g>
		<g class="st6">
			<polygon class="st7" points="535.7,518.4 527.4,523.2 527.6,151.3 532.6,154.2 535.7,156 			"/>
			<polygon class="st7" points="549.5,510.5 540.9,515.4 540.9,159 549.5,163.9 			"/>
			<polygon class="st7" points="563,502.7 554.7,507.5 554.7,166.9 563,171.7 			"/>
			<polygon class="st7" points="576.8,494.8 568.2,499.7 568.2,174.7 576.8,179.6 			"/>
			<polygon class="st7" points="590.3,487 582,491.8 582,182.6 590.3,187.4 			"/>
			<polygon class="st7" points="604.1,479.1 595.5,484 595.5,190.4 604.1,195.3 			"/>
			<polygon class="st7" points="617.6,471.3 609.3,476.1 609.3,198.3 617.6,203.1 			"/>
		</g>
	</g>
	<g>
		<path d="M192.8,588.6c15.3,0,21,2.8,21,10.5v22.7c0,7.7-5.7,10.5-21,10.5h-3.5v19.2h-17.5v-63H192.8z M189.3,621.8h3.5
			c2.3,0,3.5-1.6,3.5-4.4v-14c0-2.8-1.2-4.4-3.5-4.4h-3.5V621.8z"/>
		<path d="M254.1,588.6v12.2h-15.7v13.1h14v12.2h-14v25.3h-17.5v-63H254.1z"/>
		<path d="M278.4,588.6v50.7h15.7v12.2h-33.2v-63H278.4z"/>
		<path d="M332.2,588.6c0,0,10.5,31.5,10.5,47.2v8.7c0,2.7,0.2,5.2,0.4,7h-14.9c-2.5,0-3.1-3.1-3.1-11.4v-0.9h-7v12.2h-17.5v-15.7
			c0-15.7,10.5-47.2,10.5-47.2H332.2z M325.2,627.1v-3.7c0-3.7-1.9-22.9-3.5-26.1c-1.5,3.1-3.5,22.4-3.5,26.1v3.7H325.2z"/>
		<path d="M375.8,606.1v-5.2c0-1.8-1.8-2.6-5.2-2.6c-3.4,0-5.2,1.2-5.2,3.5c0,9.6,25.3,16.6,25.3,28v12.2c0,7.7-5.5,10.5-20.5,10.5
			c-13.4,0-20.5-3.1-20.5-8.7v-10.5h14v5.2c0,2.3,2,3.5,5.7,3.5c3.7,0,5.7-1.6,5.7-4.4c0-9.6-24.5-17.1-24.5-28.4v-10.9
			c0-7.7,5.3-10.5,19.7-10.5c14.3,0,19.7,2.4,19.7,8.7v9.6H375.8z"/>
		<path d="M438.8,588.6v12.2h-12.2v50.7h-17.5v-50.7h-12.2v-12.2H438.8z"/>
		<path d="M478.9,588.6v12.2h-15.7v13.1h10.5v12.2h-10.5v13.1h15.7v12.2h-33.2v-63H478.9z"/>
		<path d="M505.8,588.6c15.3,0,21,2.8,21,10.5v12.2c0,5.6-3,8.6-10.5,9.8c5.9,1.7,11.4,6.3,11.4,11.2v12.2c0,2.7,0.2,5.2,0.4,7
			h-14.9c-2.5,0-3.1-3.1-3.1-11.4v-8.7c0-2.6-1.1-4.4-2.8-4.4h-4.2v24.5h-17.5v-63H505.8z M503.2,616.6h3.5c2.3,0,3.5-1.6,3.5-4.4
			v-8.7c0-2.8-1.2-4.4-3.5-4.4h-3.5V616.6z"/>
		<path d="M550.7,588.6c6.7,0,12.9,3.2,17.5,8.5c4.6-5.2,10.8-8.5,17.5-8.5h15.7v56c0,2.7,0.2,5.2,0.4,7H587
			c-2.5,0-3.1-3.1-3.1-11.4v-41.1c-4.6,0-7,4.9-7,14v38.5h-17.5v-38.5c0-9.1-2.4-14-7-14v52.5H535v-63H550.7z"/>
		<path d="M642.3,588.6v12.2h-15.7v13.1H637v12.2h-10.5v13.1h15.7v12.2H609v-63H642.3z"/>
		<path d="M666.6,588.6v63h-17.5v-63H666.6z"/>
		<path d="M699.8,606.1v-5.2c0-1.8-1.8-2.6-5.3-2.6c-3.4,0-5.2,1.2-5.2,3.5c0,9.6,25.4,16.6,25.4,28v12.2c0,7.7-5.5,10.5-20.6,10.5
			c-13.4,0-20.5-3.1-20.5-8.7v-10.5h14v5.2c0,2.3,2,3.5,5.7,3.5c3.7,0,5.7-1.6,5.7-4.4c0-9.6-24.5-17.1-24.5-28.4v-10.9
			c0-7.7,5.3-10.5,19.7-10.5c14.3,0,19.7,2.4,19.7,8.7v9.6H699.8z"/>
		<path d="M762.8,588.6v12.2h-12.2v50.7h-17.5v-50.7h-12.2v-12.2H762.8z"/>
		<path d="M802.9,588.6v12.2h-15.7v13.1h10.5v12.2h-10.5v13.1h15.7v12.2h-33.2v-63H802.9z"/>
		<path d="M829.8,588.6c15.3,0,21,2.8,21,10.5v12.2c0,5.6-3,8.6-10.5,9.8c5.9,1.7,11.4,6.3,11.4,11.2v12.2c0,2.7,0.2,5.2,0.4,7
			h-14.9c-2.5,0-3.1-3.1-3.1-11.4v-8.7c0-2.6-1.1-4.4-2.8-4.4h-4.2v24.5h-17.5v-63H829.8z M827.2,616.6h3.5c2.3,0,3.5-1.6,3.5-4.4
			v-8.7c0-2.8-1.2-4.4-3.5-4.4h-3.5V616.6z"/>
	</g>
	<g>
		<g>
			<path d="M777.1,689.8v-4.3l0.2-0.2h4.3l0.2,0.2v4.3l-0.2,0.2h-4.3L777.1,689.8z"/>
			<path d="M795.8,674.9v-3.3c0-1.1-0.5-1.6-1.3-1.6c-0.9,0-1.3,0.6-1.3,1.6v13.1c0,1.1,0.5,1.6,1.3,1.6c0.9,0,1.3-0.6,1.3-1.6v-3.3
				h5.9v5.3c0,2.6-1.9,3.6-7.2,3.6c-5.7,0-7.9-1-7.9-3.9v-16.4c0-2.9,2.1-3.9,7.9-3.9c5.3,0,7.2,1,7.2,3.6v5.3H795.8z"/>
			<path d="M822.2,669.9v16.4c0,2.9-2.1,3.9-7.9,3.9c-5.7,0-7.9-1-7.9-3.9v-16.4c0-2.9,2.1-3.9,7.9-3.9
				C820,666,822.2,667.1,822.2,669.9z M813,671.6v13.1c0,1.1,0.5,1.6,1.3,1.6c0.9,0,1.3-0.6,1.3-1.6v-13.1c0-1.1-0.5-1.6-1.3-1.6
				C813.4,669.9,813,670.5,813,671.6z"/>
			<path d="M832.9,666.3c2.5,0,4.8,1.2,6.6,3.2c1.7-2,4-3.2,6.6-3.2h5.9v21c0,1,0.1,2,0.2,2.6h-5.6c-1,0-1.2-1.2-1.2-4.3v-15.4
				c-1.7,0-2.6,1.8-2.6,5.3V690h-6.6v-14.4c0-3.4-0.9-5.3-2.6-5.3V690H827v-23.6H832.9z"/>
		</g>
	</g>
	<rect x="170" y="676.1" class="st4" width="603.6" height="4.1"/>
</g>
<path class="st8" d="M684,189.3"/>
</svg>
